<svg width="255" height="234" viewBox="0 0 255 234" fill="none" xmlns="http://www.w3.org/2000/svg">
<path d="M91.3519 0.450546C91.03 2.83252 91.2231 50.5364 91.545 51.0514C91.8669 51.5664 110.794 51.7596 158.627 51.8239L225.193 51.8883L230.279 43.1973C233.047 38.369 235.622 33.9913 235.944 33.3475C236.652 32.1887 240.515 25.4291 242.511 21.8883C243.219 20.6008 245.858 16.0299 248.369 11.7166C250.944 7.33895 253.455 2.96128 253.97 1.93123L255 -9.53674e-05H173.176C128.24 -9.53674e-05 91.4163 0.193035 91.3519 0.450546Z" fill="url(#paint0_linear)"/>
<path d="M1.48069 78.181L0 78.3741V104.125V129.812H87.9399H175.88L177.103 128.331C177.747 127.559 178.262 126.722 178.326 126.529C178.326 126.207 185.343 113.717 187.339 110.499C187.854 109.597 200.343 88.0308 201.438 86.0351C201.76 85.52 202.918 83.5243 204.013 81.6574C205.107 79.7904 206.009 78.181 206.009 78.1166C206.009 77.9235 2.96137 77.9878 1.48069 78.181Z" fill="url(#paint1_linear)"/>
<path d="M91.6095 157.017C91.2876 157.21 91.0945 168.863 91.0945 182.833L91.1589 208.262L114.592 208.455L138.09 208.584L138.991 206.524C139.507 205.365 140.408 203.691 140.987 202.79C141.567 201.888 142.79 199.893 143.691 198.283C144.592 196.674 150.193 186.953 156.116 176.717C162.039 166.416 166.996 157.725 167.189 157.339C167.446 156.631 92.5752 156.309 91.6095 157.017Z" fill="#F1F1F1"/>
<path d="M172.061 206.824V192.232H167.645V188.328H181.981V192.232H177.565V206.824H172.061ZM183.325 206.824V188.328H189.149L192.733 195.176H193.117L196.701 188.328H202.141V206.824H197.533V200.616L198.045 194.664H197.789L192.733 204.008L187.677 194.664H187.421L187.933 200.616V206.824H183.325Z" fill="#F1F1F1"/>
<defs>
<linearGradient id="paint0_linear" x1="255" y1="52" x2="91" y2="3.35969e-06" gradientUnits="userSpaceOnUse">
<stop stop-color="#F5AF19"/>
<stop offset="1" stop-color="#F12711"/>
</linearGradient>
<linearGradient id="paint1_linear" x1="206" y1="130" x2="-5.94391e-06" y2="78" gradientUnits="userSpaceOnUse">
<stop stop-color="#F12711"/>
<stop offset="1" stop-color="#F5AF19"/>
</linearGradient>
</defs>
</svg>
